<svg width="100" height="100" viewBox="0 0 100 100" fill="none" xmlns="http://www.w3.org/2000/svg">
<path d="M23 14H80C83.866 14 87 17.134 87 21V78C87 81.866 83.866 85 80 85H23C19.134 85 16 81.866 16 78V21C16 17.134 19.134 14 23 14Z" stroke="black" stroke-width="4"/>
<path d="M55.4668 47.9131V77H45.623V40.0176H54.8516L55.4668 47.9131ZM54.0312 57.21H51.3652C51.3652 54.4756 51.7184 52.0146 52.4248 49.8271C53.1312 47.6169 54.1224 45.737 55.3984 44.1875C56.6745 42.6152 58.1898 41.4189 59.9443 40.5986C61.7217 39.7555 63.7041 39.334 65.8916 39.334C67.6234 39.334 69.207 39.5846 70.6426 40.0859C72.0781 40.5872 73.3086 41.3848 74.334 42.4785C75.3822 43.5723 76.1797 45.0192 76.7266 46.8193C77.2962 48.6195 77.5811 50.8184 77.5811 53.416V77H67.6689V53.3818C67.6689 51.7412 67.4411 50.4652 66.9854 49.5537C66.5296 48.6423 65.8574 48.0042 64.9688 47.6396C64.1029 47.2523 63.0319 47.0586 61.7559 47.0586C60.4342 47.0586 59.2835 47.3206 58.3037 47.8447C57.3467 48.3688 56.5492 49.098 55.9111 50.0322C55.2959 50.9437 54.8288 52.0146 54.5098 53.2451C54.1908 54.4756 54.0312 55.7972 54.0312 57.21Z" fill="black"/>
<path d="M36.2178 40.0176V77H26.3398V40.0176H36.2178Z" fill="black"/>
<path d="M25 29.7129C25 28.0277 25.5885 26.6368 26.7654 25.5401C27.9424 24.4434 29.5206 23.895 31.5 23.895C33.4527 23.895 35.0175 24.4434 36.1944 25.5401C37.3981 26.6368 38 28.0277 38 29.7129C38 31.3981 37.3981 32.7891 36.1944 33.8858C35.0175 34.9825 33.4527 35.5308 31.5 35.5308C29.5206 35.5308 27.9424 34.9825 26.7654 33.8858C25.5885 32.7891 25 31.3981 25 29.7129Z" fill="black"/>
</svg>
